<?xml version="1.0" standalone="no"?>
<!DOCTYPE svg PUBLIC "-//W3C//DTD SVG 1.1//EN" "http://www.w3.org/Graphics/SVG/1.1/DTD/svg11.dtd" >
<svg xmlns="http://www.w3.org/2000/svg">
<metadata>Generated by IcoMoon</metadata>
<defs>
<font id="icomoon" horiz-adv-x="1024">
<font-face units-per-em="1024" ascent="960" descent="-64" />
<missing-glyph horiz-adv-x="1024" />
<glyph unicode="&#x20;" horiz-adv-x="512" d="" />
<glyph unicode="&#xe900;" glyph-name="arrow_up" horiz-adv-x="1280" d="M640 960l640-1024h-1280z" />
<glyph unicode="&#xe901;" glyph-name="arrow_down" horiz-adv-x="1280" d="M640-64l640 1024h-1280z" />
<glyph unicode="&#xe902;" glyph-name="add_new" d="M512 857.6c28.277 0 51.2-22.923 51.2-51.2v-716.8c0-28.277-22.923-51.2-51.2-51.2s-51.2 22.923-51.2 51.2v716.8c0 28.277 22.923 51.2 51.2 51.2zM102.4 448c0-28.277 22.923-51.2 51.2-51.2h716.8c28.277 0 51.2 22.923 51.2 51.2s-22.923 51.2-51.2 51.2h-716.8c-28.277 0-51.2-22.923-51.2-51.2z" />
<glyph unicode="&#xe903;" glyph-name="message" d="M91.039 725.33c-3.629-6.275-5.706-13.56-5.706-21.33v-512c0-23.564 19.103-42.667 42.667-42.667h768c23.564 0 42.667 19.103 42.667 42.667v512c0 8.137-2.278 15.742-6.23 22.212-1.713-2.803-3.778-5.452-6.198-7.882l-323.661-325.147c-50.194-50.195-131.239-50.195-181.226-0.208l-323.522 323.522c-2.702 2.702-4.965 5.675-6.791 8.833zM834.043 746.667h-645.703l293.352-293.352c16.662-16.662 43.677-16.662 60.34 0l0.069 0.069 291.942 293.283zM128 832h768c70.692 0 128-57.308 128-128v-512c0-70.692-57.308-128-128-128h-768c-70.692 0-128 57.308-128 128v512c0 70.692 57.308 128 128 128zM116.347 162.699c-16.183-17.129-43.187-17.895-60.315-1.713s-17.895 43.187-1.713 60.315l195.862 207.31c16.183 17.129 43.187 17.895 60.315 1.713s17.895-43.187 1.713-60.315l-195.862-207.31zM906.648 163.799c15.575-17.683 42.536-19.392 60.219-3.818s19.392 42.536 3.818 60.219l-181.627 206.214c-15.575 17.683-42.536 19.392-60.219 3.818s-19.392-42.536-3.818-60.219l181.627-206.214z" />
<glyph unicode="&#xe904;" glyph-name="menu" d="M42.667 832h938.667c23.564 0 42.667-19.103 42.667-42.667s-19.103-42.667-42.667-42.667h-938.667c-23.564 0-42.667 19.103-42.667 42.667s19.103 42.667 42.667 42.667zM42.667 490.667h938.667c23.564 0 42.667-19.103 42.667-42.667s-19.103-42.667-42.667-42.667h-938.667c-23.564 0-42.667 19.103-42.667 42.667s19.103 42.667 42.667 42.667zM42.667 149.333h597.333c23.564 0 42.667-19.103 42.667-42.667s-19.103-42.667-42.667-42.667h-597.333c-23.564 0-42.667 19.103-42.667 42.667s19.103 42.667 42.667 42.667z" />
<glyph unicode="&#xe905;" glyph-name="back" d="M170.667 490.667h725.333c23.564 0 42.667-19.103 42.667-42.667s-19.103-42.667-42.667-42.667h-725.333c-23.564 0-42.667 19.103-42.667 42.667s19.103 42.667 42.667 42.667zM567.163 55.791c16.662-16.662 16.662-43.677 0-60.34s-43.677-16.662-60.34 0l-422.378 422.378c-16.662 16.662-16.662 43.677 0 60.34l422.378 422.378c16.662 16.662 43.677 16.662 60.34 0s16.662-43.677 0-60.34l-392.209-392.209 392.209-392.209z" />
<glyph unicode="&#xe906;" glyph-name="collapse_up" d="M512 643.66l225.83-225.83c16.662-16.662 43.677-16.662 60.34 0s16.662 43.677 0 60.34l-256 256c-16.662 16.662-43.677 16.662-60.34 0l-256-256c-16.662-16.662-16.662-43.677 0-60.34s43.677-16.662 60.34 0l225.83 225.83zM737.83 161.83c16.662-16.662 43.677-16.662 60.34 0s16.662 43.677 0 60.34l-256 256c-16.662 16.662-43.677 16.662-60.34 0l-256-256c-16.662-16.662-16.662-43.677 0-60.34s43.677-16.662 60.34 0l225.83 225.83 225.83-225.83z" />
<glyph unicode="&#xe907;" glyph-name="collapse_down" d="M512 252.34l225.83 225.83c16.662 16.662 43.677 16.662 60.34 0s16.662-43.677 0-60.34l-256-256c-16.662-16.662-43.677-16.662-60.34 0l-256 256c-16.662 16.662-16.662 43.677 0 60.34s43.677 16.662 60.34 0l225.83-225.83zM737.83 734.17c16.662 16.662 43.677 16.662 60.34 0s16.662-43.677 0-60.34l-256-256c-16.662-16.662-43.677-16.662-60.34 0l-256 256c-16.662 16.662-16.662 43.677 0 60.34s43.677 16.662 60.34 0l225.83-225.83 225.83 225.83z" />
<glyph unicode="&#xe908;" glyph-name="back_pc" d="M170.667 832c-23.564 0-42.667-19.103-42.667-42.667v-512c0-23.564 19.103-42.667 42.667-42.667h682.667c23.564 0 42.667 19.103 42.667 42.667v512c0 23.564-19.103 42.667-42.667 42.667h-682.667zM170.667 917.333h682.667c70.692 0 128-57.308 128-128v-512c0-70.692-57.308-128-128-128h-682.667c-70.692 0-128 57.308-128 128v512c0 70.692 57.308 128 128 128zM128 277.333c0-23.564 19.103-42.667 42.667-42.667h682.667c23.564 0 42.667 19.103 42.667 42.667h-768zM981.333 362.667v-85.333c0-70.692-57.308-128-128-128h-682.667c-70.692 0-128 57.308-128 128v85.333h938.667zM256 64h512c23.564 0 42.667-19.103 42.667-42.667s-19.103-42.667-42.667-42.667h-512c-23.564 0-42.667 19.103-42.667 42.667s19.103 42.667 42.667 42.667zM469.333 149.333v-85.333h85.333v85.333h-85.333zM448 234.667h128c35.346 0 64-28.654 64-64v-128c0-35.346-28.654-64-64-64h-128c-35.346 0-64 28.654-64 64v128c0 35.346 28.654 64 64 64z" />
<glyph unicode="&#xe909;" glyph-name="customer_service" d="M814.518 718.608c-5.317 2.282-12.637 4.822-20.923 7.25-15.584 4.566-32.846 8.053-36.186 8.053v85.333c34.015 0 107.488-21.526 125.607-47.512 12.756-18.301 20.759-52.937 22.341-81.583 0.049-3.053 0.325-7.471 0.932-14.654 0.863-10.241 1.3-20.559 1.3-30.937 0-10.403-0.464-20.518-1.368-30.368-1.842-19.831-5.87-34.115-16.879-47.079-1.24-8.691-3.17-18.169-5.672-28.185-2.253-11.793-6.185-23.621-11.458-34.391-2.38-4.833-4.971-9.47-7.517-13.558 7.41-2.637 15.133-5.466 23.151-8.483l34.764-13.080c12.939-4.856 22.376-8.774 28.846-12.067 17.527-8.897 31.153-19.826 40.536-33.723 8.358-12.219 13.771-26.627 16.673-42.526 0.893-4.664 2.163-12.803 3.694-23.659 1.37-9.839 2.792-20.734 4.438-33.904 1.39-11.391 2.729-21.277 4.094-30.151 1.548-10.487 2.479-18.602 2.725-24.636 1.741-17.299-2.504-35.324-11.981-50.517-13.179-21.094-49.787-36.194-73.267-39.834l-13.071 84.326c0.314 0.049 7.181 2.219 12.862 4.563-0.172 2.464-0.753 7.318-1.647 13.377-1.473 9.57-2.93 20.318-4.405 32.414-1.585 12.681-2.959 23.201-4.256 32.519-1.339 9.49-2.436 16.519-3.065 19.817-0.952 5.214-2.199 8.533-3.37 10.246-0.513 0.759-3.029 2.777-8.626 5.619-2.983 1.518-9.987 4.426-20.198 8.258l-34.797 13.092c-12.261 4.614-23.712 8.733-34.262 12.333-9.953 3.395-16.793 5.566-18.349 5.955-2.507 0.615-2.507 0.615-4.908 1.288l-30.738 8.951v54.615c0 3.356 0.135 6.758 0.389 10.437l1.094 15.831 11.173 11.269c1.973 1.99 3.593 3.917 6.709 8.179 2.359 2.878 4.659 6.496 6.709 10.659 1.878 3.837 3.405 8.429 4.717 14.983 3.284 13.348 4.961 23.028 5.263 29.29 0.102 1.754 0.102 1.754 0.129 2.415l0.738 23.135 14.694 8.903c0.019 0.322 0.052 0.709 0.094 1.165 0.662 7.214 1.007 14.727 1.007 22.523 0 7.978-0.336 15.906-0.998 23.76-0.757 8.954-1.136 15.032-1.161 18.745-0.535 9.476-3.546 24.2-5.579 31.545zM119.439 257.453l-18.746-83.249c-26 5.855-40.23 9.196-46.493 11.053-29.451 9.426-45.411 32.141-51.225 58.232-3.626 16.285-3.968 32.609-0.822 48.568l7.568 37.471c3.615 17.612 7.036 33.053 9.584 43.166 7.337 42.728 32.459 77.192 73.969 97.405 8.707 3.409 17.904 6.515 29.174 9.889 10.27 3.104 20.68 6.043 30.998 8.755-5.79 8.326-11.504 18.952-16.794 31.158-4.757 11.037-8.16 22.431-10.004 32.699-5.834 6.963-10.248 14.902-12.881 23.336-1.319 3.933-2.905 9.747-4.592 16.756-3.108 12.751-3.893 26.371-2.585 40.513 0.719 7.954 1.411 16.213 1.954 20.649-0.114 5.44 0.35 13.118 1.285 23.113 1.151 11.356 3.578 23.148 7.146 35.003 4.068 13.714 10.173 27.062 18.030 39.598 10.779 17.335 26.123 35.446 40.215 44.977 7.901 5.751 6.637 4.845 10.019 7.039 25.169 16.331 54.553 22.39 93.24 14.997l-16.018-83.816c-16.759 3.203-23.82 1.747-30.775-2.765-1.422-0.923-0.453-0.228-7.404-5.258-3.511-2.382-11.781-12.142-16.892-20.362-3.901-6.224-6.778-12.514-8.654-18.839-2.096-6.963-3.427-13.43-3.977-18.844-0.618-6.614-0.929-11.757-1.017-17.216-0.69-8.982-1.413-17.623-2.175-26.045-0.484-5.233-0.242-9.442 0.541-12.651 0.527-2.187 1.017-4.128 1.456-5.781l12.39-8.169 3.012-18.454c0.011-0.066 0.011-0.066 0.111-0.624 0.143-0.786 0.143-0.786 0.784-5.609 0.535-6.869 2.242-13.711 5.121-20.391 3.247-7.494 6.405-13.235 8.183-15.562l3.010-4.505c0.983-1.696 2.435-3.573 4.24-5.411 3.885-3.93 7.553-8.113 11.187-12.754 0.792-1.026 1.896-2.259 3.295-3.646l12.052-11.941 2.147-64.89-24.424-12.245c-4.724-2.323-8.891-3.869-15.805-5.31l-0.449-0.091c-2.619-0.516-8.177-1.879-16.208-4.007l-26.983-7.154c-9.405-2.472-18.818-5.13-28.199-7.965-9.275-2.777-16.309-5.153-19.4-6.204-13.329-6.543-21.454-17.689-24.805-36.634-2.881-11.901-6.089-26.381-9.486-42.932l-7.502-37.142c-0.605-3.068-0.679-6.437-0.151-10.149 6.749-1.615 18.281-4.273 33.753-7.757zM292.924 610.558c-7.28 15.798-10.678 32.424-10.224 49.833 0.324 13.804 1.195 33.195 2.729 60.638 2.294 26.791 6.66 52.775 13.063 77.397 7.324 27.83 23.35 53.379 47.618 76.351 13.426 11.897 30.679 21.24 51.203 28.343 19.273 6.661 39.1 11.62 59.058 14.756 19.75 3.086 38.933 4.662 57.040 4.662 16.288 0 29.060-0.959 38.457-2.725 31.768-2.147 50.234-11.795 70.119-30.957l0.796-0.768c7.052-6.801 6.892-6.725 19.511-6.725l9.233-1.011c22.339-4.951 40.979-17.264 54.967-35.846 13.756-18.144 21.312-40.066 23.138-67.45 0-5.893 0.338-15.837 1.016-29.392 0.744-14.029 1.102-29.006 1.102-45.083 0-16.003-0.559-30.53-1.691-43.46-0.956-11.473-2.6-19.905-6.213-27.623-3.991-8.524-10.594-15.321-18.621-19.587-0.239-3.165-0.549-7.073-0.946-11.996-1.181-14.329-4.42-33.54-9.689-58.013-3.271-14.326-8.161-27.637-14.696-39.645-5.635-10.246-11.618-19.945-19.111-30.415-5.42-6.63-10.971-12.997-16.721-19.188-0.315-5.813-0.469-11.573-0.469-17.257v-22.967c0-6.496 0.317-11.755 1.014-16.796 0.328-4.121 0.514-4.599-0.204-3.886-0.141 0.146 2.214-1.043 7.983-2.554l5.157-1.708c2.658-1.073 8.865-3.199 17.35-5.884 9.886-3.046 21.323-7.008 37.236-12.874l78.059-28.603c12.571-4.629 24.301-9.113 34.924-13.339 8.926-3.55 16.838-6.811 24.637-10.257 18.856-9.581 31.429-20.275 38.492-32.398 5.698-9.838 10.528-21.777 15.024-37.609 1.605-7.46 3.552-19.434 6.197-37.726 2.464-17.223 5.135-35.368 8.026-54.54 2.955-19.437 5.33-37.722 7.097-54.687 1.648-15.297 2.996-26.496 3.25-27.852l0.6-4.529c1.066-13.62-1.076-26.468-8.12-38.148-1.831-3.036-4.033-5.831-6.555-8.322-9.323-8.378-16.662-12.696-32.047-17.039-1.693-0.47-1.693-0.47-3.971-1.053-13.165-3.167-31.638-6.389-55.543-9.761-23.571-3.328-50.923-6.455-82.295-9.426-30.958-2.941-65.119-5.335-102.729-7.218-72.87-3.536-157.025-3.605-236.051-0.565-37.324 1.476-71.919 3.515-103.683 6.104-31.164 2.534-59.251 5.511-84.135 8.903-24.926 3.415-44.76 7.058-58.591 10.79-4.93 1.195-10.301 3.328-16.403 6.435-5.943 3.023-11.59 6.785-17.040 11.308-6.586 5.52-11.81 12.391-15.759 20.982-3.626 8.313-5.132 17.634-3.815 28.004 0.725 5.603 2.348 15.002 6.105 35.805 3.211 17.823 6.996 37.098 11.402 58.125 4.303 20.49 8.223 39.563 11.785 57.359 4.307 21.296 6.229 30.005 8.275 36.144 3.443 10.417 8.231 21.006 14.234 31.598 7.282 12.852 18.519 24.761 33.542 36.663 8.608 6.758 22.010 13.299 42.664 20.285 17.801 6.037 36.223 11.659 55.119 16.819 19.013 5.239 36.992 9.73 53.889 13.46 15.607 3.471 26.468 6.052 32.657 7.738 8.169 1.674 15.404 3.677 21.521 5.916v45.306c-5.633 5.185-10.955 10.599-15.798 16.029-7.39 7.55-14.55 16.291-21.874 26.587-7.19 10.236-13.611 21.063-18.918 31.883-10.889 21.416-18.197 41.765-21.566 60.907-1.67 9.629-3.11 17.556-4.045 22.453-7.793 4.402-14.013 11.149-17.767 19.294zM563.547 826.665l-0.773 0.745c-6.808 6.56-7.341 6.829-18.642 7.378l-8.246 1.216c-1.928 0.48-9.694 1.201-22.474 1.201-13.561 0-28.356-1.216-43.828-3.633-14.926-2.346-29.861-6.081-44.379-11.099-10.659-3.689-18.258-7.804-21.443-10.594-12.178-11.545-19.671-23.49-22.713-35.049-5.135-19.749-8.705-40.989-10.505-61.791-1.397-25.327-2.234-43.948-2.535-56.763-0.029-1.101-0.005-2.152 0.073-3.169 12.701-10.693 20.954-24.002 24.511-38.661 1.125-4.618 3.308-16.244 6.205-32.95 1.761-10.003 6.266-22.55 13.838-37.451 3.607-7.346 7.76-14.35 12.266-20.766 4.74-6.663 9.126-12.017 14.423-17.485 5.831-6.49 11.211-11.721 16.818-16.379l6.751-5.632c9.717-8.106 15.334-20.108 15.334-32.762v-72.373c0-29.328-16.426-56.992-50.886-70.725-11.596-4.648-24.64-8.428-35.035-10.374-5.307-1.608-16.98-4.381-35.132-8.418-15.477-3.416-32.038-7.553-49.773-12.44-17.348-4.738-34.129-9.859-50.321-15.35-12.285-4.155-17.476-6.687-17.194-6.464-6.992-5.54-11.103-9.897-12.142-11.73-3.343-5.899-5.835-11.41-7.486-16.405-0.428-1.285-2.357-10.022-5.609-26.1-3.601-17.989-7.574-37.323-11.927-58.046-4.245-20.258-7.877-38.752-10.94-55.754-0.523-2.895-1.003-5.563-1.443-8.019 9.405-1.865 20.975-3.753 34.523-5.609 23.239-3.169 49.805-5.983 79.505-8.399 30.54-2.49 63.953-4.459 100.083-5.888 76.616-2.947 158.32-2.881 228.524 0.526 36.336 1.819 69.243 4.125 98.873 6.94 30.168 2.856 56.255 5.839 78.428 8.97 11.823 1.668 22.021 3.269 30.376 4.752-0.292 2.637-0.6 5.459-0.924 8.465-1.638 15.726-3.841 32.691-6.61 50.902-2.93 19.43-5.631 37.786-8.118 55.165-2.362 16.335-4.093 26.979-4.412 28.976-1.71 5.872-3.693 10.98-5.415 14.327 1.216-2.225 0.612-1.857-1.591-0.661-4.563 1.96-11.769 4.929-20.007 8.206-9.928 3.948-20.976 8.172-32.81 12.53l-78.074 28.609c-14.665 5.406-24.759 8.903-33.23 11.514-9.073 2.87-16.132 5.251-21.24 7.187-18.417 5.147-33.391 12.964-44.638 24.562-14.68 14.708-22.219 34.125-23.498 52.778-1.239 6.872-1.826 16.615-1.826 27.757v22.967c0 10.582 0.422 21.339 1.262 31.922l0.503 6.894c0.738 10.109 5.050 19.625 12.164 26.844l4.599 4.665c6.122 6.301 12.11 13.012 16.049 17.65 3.735 5.317 8.093 12.383 12.196 19.841 2.577 4.736 4.776 10.721 6.249 17.159 4.443 20.652 7.133 36.602 7.946 46.476 0.904 11.217 1.37 17.732 1.37 18.020 0 21.743 9.639 41.128 25.253 53.47 0.377 7.432 0.566 15.516 0.566 24.241 0 14.636-0.322 28.12-0.989 40.692-0.75 14.99-1.129 26.145-1.024 30.781-0.606 8.592-2.699 14.662-5.998 19.014-1.181 1.569-2.069 2.491-3.012 3.081-32.436 1.157-51.371 10.768-71.848 30.516z" />
<glyph unicode="&#xe90a;" glyph-name="target_user" d="M512 21.333c-235.641 0-426.667 191.025-426.667 426.667s191.025 426.667 426.667 426.667c235.641 0 426.667-191.025 426.667-426.667s-191.025-426.667-426.667-426.667zM512 106.667c188.513 0 341.333 152.82 341.333 341.333s-152.82 341.333-341.333 341.333c-188.513 0-341.333-152.82-341.333-341.333s152.82-341.333 341.333-341.333zM512 234.667c-117.821 0-213.333 95.513-213.333 213.333s95.513 213.333 213.333 213.333c117.821 0 213.333-95.513 213.333-213.333s-95.513-213.333-213.333-213.333zM512 320c70.692 0 128 57.308 128 128s-57.308 128-128 128c-70.692 0-128-57.308-128-128s57.308-128 128-128zM554.667 448c0-23.564-19.103-42.667-42.667-42.667s-42.667 19.103-42.667 42.667c0 23.564 19.103 42.667 42.667 42.667s42.667-19.103 42.667-42.667zM512 960c23.564 0 42.667-19.103 42.667-42.667v-170.667c0-23.564-19.103-42.667-42.667-42.667s-42.667 19.103-42.667 42.667v170.667c0 23.564 19.103 42.667 42.667 42.667zM512 192c23.564 0 42.667-19.103 42.667-42.667v-170.667c0-23.564-19.103-42.667-42.667-42.667s-42.667 19.103-42.667 42.667v170.667c0 23.564 19.103 42.667 42.667 42.667zM42.667 490.667h170.667c23.564 0 42.667-19.103 42.667-42.667s-19.103-42.667-42.667-42.667h-170.667c-23.564 0-42.667 19.103-42.667 42.667s19.103 42.667 42.667 42.667zM810.667 490.667h170.667c23.564 0 42.667-19.103 42.667-42.667s-19.103-42.667-42.667-42.667h-170.667c-23.564 0-42.667 19.103-42.667 42.667s19.103 42.667 42.667 42.667z" />
<glyph unicode="&#xe90b;" glyph-name="news" d="M682.667-21.333h-512c-70.692 0-128 57.308-128 128v512c0 70.692 57.308 128 128 128v42.667c0 70.692 57.308 128 128 128h554.667c70.692 0 128-57.308 128-128v-682.667c0-70.692-57.308-128-128-128h-170.667zM170.667 661.333c-23.564 0-42.667-19.103-42.667-42.667v-512c0-23.564 19.103-42.667 42.667-42.667h682.667c23.564 0 42.667 19.103 42.667 42.667v682.667c0 23.564-19.103 42.667-42.667 42.667h-554.667c-23.564 0-42.667-19.103-42.667-42.667v-590.152c0-23.564-19.103-42.667-42.667-42.667s-42.667 19.103-42.667 42.667v462.152zM426.667 661.333v-85.333h85.333v85.333h-85.333zM384 746.667h170.667c23.564 0 42.667-19.103 42.667-42.667v-170.667c0-23.564-19.103-42.667-42.667-42.667h-170.667c-23.564 0-42.667 19.103-42.667 42.667v170.667c0 23.564 19.103 42.667 42.667 42.667zM682.667 746.667h85.333c23.564 0 42.667-19.103 42.667-42.667s-19.103-42.667-42.667-42.667h-85.333c-23.564 0-42.667 19.103-42.667 42.667s19.103 42.667 42.667 42.667zM682.667 576h85.333c23.564 0 42.667-19.103 42.667-42.667s-19.103-42.667-42.667-42.667h-85.333c-23.564 0-42.667 19.103-42.667 42.667s19.103 42.667 42.667 42.667zM384 405.333h384c23.564 0 42.667-19.103 42.667-42.667s-19.103-42.667-42.667-42.667h-384c-23.564 0-42.667 19.103-42.667 42.667s19.103 42.667 42.667 42.667zM384 234.667h384c23.564 0 42.667-19.103 42.667-42.667s-19.103-42.667-42.667-42.667h-384c-23.564 0-42.667 19.103-42.667 42.667s19.103 42.667 42.667 42.667z" />
<glyph unicode="&#xe90c;" glyph-name="work_perform" d="M896 448h85.333v-384c0-47.128-38.205-85.333-85.333-85.333h-768c-47.128 0-85.333 38.205-85.333 85.333v384h85.333v-384h768v384zM399.421 411.608c-9.718-13.856-15.421-30.733-15.421-48.941 0-12.9 2.863-25.132 7.987-36.095-118.185 13.295-226.692 46.766-325.245 100.48-41.141 22.424-66.743 65.535-66.743 112.391v79.225c0 70.692 57.308 128 128 128h768c70.692 0 128-57.308 128-128v-79.225c0-46.856-25.602-89.967-66.744-112.391-98.551-53.713-207.058-87.184-325.243-100.479 5.125 10.963 7.987 23.194 7.987 36.095 0 18.209-5.703 35.085-15.421 48.941 106.608 12.241 203.797 42.385 291.839 90.37 13.714 7.474 22.248 21.845 22.248 37.464v79.225c0 23.564-19.103 42.667-42.667 42.667h-768c-23.564 0-42.667-19.103-42.667-42.667v-79.225c0-15.619 8.534-29.989 22.247-37.464 88.042-47.985 185.232-78.129 291.84-90.371zM426.667 405.333v-85.333h170.667v85.333h-170.667zM426.667 490.667h170.667c47.128 0 85.333-38.205 85.333-85.333v-85.333c0-47.128-38.205-85.333-85.333-85.333h-170.667c-47.128 0-85.333 38.205-85.333 85.333v85.333c0 47.128 38.205 85.333 85.333 85.333zM426.667 832c-23.564 0-42.667-19.103-42.667-42.667v-42.667h256v42.667c0 23.564-19.103 42.667-42.667 42.667h-170.667zM426.667 917.333h170.667c70.692 0 128-57.308 128-128v-128h-426.667v128c0 70.692 57.308 128 128 128z" />
<glyph unicode="&#xe90d;" glyph-name="search" d="M426.667 128c-223.859 0-405.333 181.474-405.333 405.333s181.474 405.333 405.333 405.333c223.859 0 405.333-181.474 405.333-405.333s-181.474-405.333-405.333-405.333zM426.667 256c153.167 0 277.333 124.166 277.333 277.333s-124.166 277.333-277.333 277.333c-153.167 0-277.333-124.166-277.333-277.333s124.166-277.333 277.333-277.333zM645.83 223.66c-24.994 24.994-24.994 65.516 0 90.51s65.516 24.994 90.51 0l222.586-222.586c24.994-24.994 24.994-65.516 0-90.51s-65.516-24.994-90.51 0l-222.586 222.586z" />
<glyph unicode="&#xe90e;" glyph-name="close" d="M753.359 689.359c16.662-16.662 16.662-43.677 0-60.34l-422.378-422.378c-16.662-16.662-43.677-16.662-60.34 0s-16.662 43.677 0 60.34l422.378 422.378c16.662 16.662 43.677 16.662 60.34 0zM270.641 689.359c-16.662-16.662-16.662-43.677 0-60.34l422.378-422.378c16.662-16.662 43.677-16.662 60.34 0s16.662 43.677 0 60.34l-422.378 422.378c-16.662 16.662-43.677 16.662-60.34 0z" />
<glyph unicode="&#xe90f;" glyph-name="edit" d="M295.385 350.851l116.841-116.841c5.251-5.251 13.128-5.251 18.379 0l291.446 292.759c5.251 5.251 5.251 13.128 0 18.379l-115.528 115.528c-5.251 5.251-13.128 5.251-18.379 0l-292.759-292.759c-5.251-5.251-5.251-13.128 0-17.067zM644.595 714.503c-5.251-5.251-5.251-13.128 0-18.379l115.528-115.528c5.251-5.251 13.128-5.251 18.379 0l32.821 32.821c21.005 19.692 21.005 51.2 0 72.205l-61.703 61.703c-21.005 21.005-53.826 21.005-74.831 0l-30.195-32.821zM198.236 156.554c-2.626-13.128 9.19-24.944 22.318-22.318l143.097 34.133c5.251 1.313 9.19 3.938 11.815 6.564l2.626 2.626c2.626 2.626 3.938 11.815-1.313 17.067l-118.154 118.154c-5.251 5.251-14.441 3.938-17.067 1.313l-2.626-2.626c-3.938-3.938-5.251-7.877-6.564-11.815l-34.133-143.097z" />
<glyph unicode="&#xe910;" glyph-name="maps" d="M512 803.556c117.689 0 213.333-94.578 213.333-211.556 0-158.578-213.333-392.889-213.333-392.889s-213.333 234.311-213.333 392.889c0 116.978 95.644 211.556 213.333 211.556zM512 661.333c-39.111 0-71.111-32-71.111-71.111s32-71.111 71.111-71.111c39.111 0 71.111 32 71.111 71.111s-32 71.111-71.111 71.111zM796.444 199.111c0-78.578-127.289-142.222-284.444-142.222s-284.444 63.644-284.444 142.222c0 45.867 43.378 86.756 110.578 112.711l22.756-32.356c-38.4-16-62.222-38.044-62.222-62.578 0-49.067 95.644-88.889 213.333-88.889s213.333 39.822 213.333 88.889c0 24.533-23.822 46.578-62.222 62.578l22.756 32.356c67.2-25.956 110.578-66.844 110.578-112.711z" />
<glyph unicode="&#xe911;" glyph-name="telephone" d="M841.143 259.81c0-8.571-1.587-19.762-4.762-33.571s-6.508-24.683-10-32.619c-6.667-15.873-26.032-32.698-58.095-50.476-29.841-16.19-59.365-24.286-88.571-24.286-8.571 0-16.984 0.556-25.238 1.667s-17.381 3.095-27.381 5.952c-10 2.857-17.46 5.159-22.381 6.905s-13.73 5-26.429 9.762c-12.698 4.762-20.476 7.619-23.333 8.571-31.111 11.111-58.889 24.286-83.333 39.524-40.317 25.079-82.222 59.365-125.714 102.857s-77.778 85.397-102.857 125.714c-15.238 24.444-28.413 52.222-39.524 83.333-0.952 2.857-3.81 10.635-8.571 23.333s-8.016 21.508-9.762 26.429c-1.746 4.921-4.048 12.381-6.905 22.381s-4.841 19.127-5.952 27.381c-1.111 8.254-1.667 16.667-1.667 25.238 0 29.206 8.095 58.73 24.286 88.571 17.778 32.063 34.603 51.429 50.476 58.095 7.937 3.492 18.81 6.825 32.619 10s25 4.762 33.571 4.762c4.444 0 7.778-0.476 10-1.429 5.714-1.905 14.127-13.968 25.238-36.19 3.492-6.032 8.254-14.603 14.286-25.714s11.587-21.19 16.667-30.238c5.079-9.048 10-17.54 14.762-25.476 0.952-1.27 3.73-5.238 8.333-11.905s8.016-12.302 10.238-16.905c2.222-4.603 3.333-9.127 3.333-13.571 0-6.349-4.524-14.286-13.571-23.81s-18.889-18.254-29.524-26.19c-10.635-7.937-20.476-16.349-29.524-25.238s-13.571-16.19-13.571-21.905c0-2.857 0.794-6.429 2.381-10.714s2.937-7.54 4.048-9.762c1.111-2.222 3.333-6.032 6.667-11.429s5.159-8.413 5.476-9.048c24.127-43.492 51.746-80.794 82.857-111.905s68.413-58.73 111.905-82.857c0.635-0.317 3.651-2.143 9.048-5.476s9.206-5.556 11.429-6.667c2.222-1.111 5.476-2.46 9.762-4.048s7.857-2.381 10.714-2.381c5.714 0 13.016 4.524 21.905 13.571s17.302 18.889 25.238 29.524c7.937 10.635 16.667 20.476 26.19 29.524s17.46 13.571 23.81 13.571c4.444 0 8.968-1.111 13.571-3.333s10.238-5.635 16.905-10.238c6.667-4.603 10.635-7.381 11.905-8.333 7.937-4.762 16.429-9.683 25.476-14.762s19.127-10.635 30.238-16.667c11.111-6.032 19.683-10.794 25.714-14.286 22.222-11.111 34.286-19.524 36.19-25.238 0.952-2.222 1.429-5.556 1.429-10z" />
<glyph unicode="&#xe912;" glyph-name="mobile" d="M715.492 822.36h-410.066c-30.824 0-55.824-24.784-55.824-56.008v-633.291c0-30.932 25.146-56.009 55.824-56.009h410.066c30.824 0 55.825 24.784 55.825 56.009v633.291c0 30.932-25.148 56.008-55.825 56.008zM509.495 123.634c-25.711 0-46.583 20.872-46.583 46.583 0 25.708 20.871 46.579 46.583 46.579 25.709 0 46.58-20.871 46.58-46.579 0-25.712-20.833-46.583-46.58-46.583zM696.784 281.795c0-9.991-8.497-18.414-18.994-18.414h-334.662c-10.497 0-18.994 8.242-18.994 18.414v447.619c0 9.991 8.498 18.414 18.994 18.414h334.697c10.463 0 18.959-8.243 18.959-18.414v-447.619z" />
<glyph unicode="&#xe913;" glyph-name="check" d="M426.679 308.097l382.54 382.54c24.994 24.994 65.516 24.994 90.51 0s24.994-65.516 0-90.51l-427.794-427.794c-24.994-24.994-65.516-24.994-90.51 0l-213.346 213.346c-24.994 24.994-24.994 65.516 0 90.51s65.516 24.994 90.51 0l168.091-168.091z" />
<glyph unicode="&#xe914;" glyph-name="open_as" d="M768 405.333c0 23.564 19.103 42.667 42.667 42.667s42.667-19.103 42.667-42.667v-213.333c0-70.692-57.308-128-128-128h-469.333c-70.692 0-128 57.308-128 128v469.333c0 70.692 57.308 128 128 128h213.333c23.564 0 42.667-19.103 42.667-42.667s-19.103-42.667-42.667-42.667h-213.333c-23.564 0-42.667-19.103-42.667-42.667v-469.333c0-23.564 19.103-42.667 42.667-42.667h469.333c23.564 0 42.667 19.103 42.667 42.667v213.333zM606.17 832h268.497c11.782 0 21.333-9.551 21.333-21.333v-268.497c0-11.782-9.551-21.333-21.333-21.333-5.658 0-11.084 2.248-15.085 6.248l-268.497 268.497c-8.331 8.331-8.331 21.839 0 30.17 4.001 4.001 9.427 6.248 15.085 6.248zM776.605 772.945c16.662 16.662 43.677 16.662 60.34 0s16.662-43.677 0-60.34l-316.108-316.108c-16.662-16.662-43.677-16.662-60.34 0s-16.662 43.677 0 60.34l316.108 316.108z" />
<glyph unicode="&#xe915;" glyph-name="calendar" d="M170.667 618.667v-469.333c0-23.564 19.103-42.667 42.667-42.667h597.333c23.564 0 42.667 19.103 42.667 42.667v469.333h-682.667zM170.667 704h682.667c47.128 0 85.333-38.205 85.333-85.333v-469.333c0-70.692-57.308-128-128-128h-597.333c-70.692 0-128 57.308-128 128v469.333c0 47.128 38.205 85.333 85.333 85.333zM768 832h85.333c47.128 0 85.333-38.205 85.333-85.333v-128h-853.333v128c0 47.128 38.205 85.333 85.333 85.333h85.333v-42.667c0-47.128 38.205-85.333 85.333-85.333s85.333 38.205 85.333 85.333v42.667h170.667v-42.667c0-47.128 38.205-85.333 85.333-85.333s85.333 38.205 85.333 85.333v42.667zM256 533.333h85.333v-85.333h-85.333v85.333zM398.222 533.333h85.333v-85.333h-85.333v85.333zM540.444 533.333h85.333v-85.333h-85.333v85.333zM682.667 533.333h85.333v-85.333h-85.333v85.333zM256 405.333h85.333v-85.333h-85.333v85.333zM398.222 405.333h85.333v-85.333h-85.333v85.333zM256 277.333h85.333v-85.333h-85.333v85.333zM398.222 277.333h85.333v-85.333h-85.333v85.333zM540.444 405.333h85.333v-85.333h-85.333v85.333zM682.667 405.333h85.333v-85.333h-85.333v85.333zM341.333 917.333c23.564 0 42.667-19.103 42.667-42.667v-85.333c0-23.564-19.103-42.667-42.667-42.667s-42.667 19.103-42.667 42.667v85.333c0 23.564 19.103 42.667 42.667 42.667zM682.667 917.333c23.564 0 42.667-19.103 42.667-42.667v-85.333c0-23.564-19.103-42.667-42.667-42.667s-42.667 19.103-42.667 42.667v85.333c0 23.564 19.103 42.667 42.667 42.667z" />
<glyph unicode="&#xe916;" glyph-name="home" horiz-adv-x="1097" d="M1097.143 343.339l-548.571 438.061-548.571-438.061v178.6l548.571 438.061 548.571-438.061v-178.6zM960 359.264v-423.264h-274.286v282.176h-274.286v-282.176h-274.286v423.264l411.429 317.448 411.429-317.448z" />
<glyph unicode="&#xe917;" glyph-name="account" horiz-adv-x="1084" d="M1061.278-64h-1006.713c5.946 28.332 11.404 54.903 16.376 79.737 4.766 23.567 7.908 38.28 9.834 44.063 3.549 10.739 8.669 22.098 15.31 33.818 5.881 10.379 16.729 21.864 32.14 34.074 3.092 2.428 13.384 9.165 42.382 18.973 23.826 8.080 48.667 15.671 74.471 22.718 25.855 7.124 50.239 13.217 73.154 18.275 24.030 5.344 39.747 9.086 45.119 10.714 16.627 3.407 31.634 7.745 44.511 12.907 29.607 11.798 34.016 32.578 34.016 43.936v102.173l-9.53 7.951c-10.189 8.467-19.873 17.889-29.962 29.119-8.212 8.39-16.373 18.407-24.637 30.023-8.213 11.693-15.715 24.265-22.306 37.689-12.876 25.323-21.191 48.532-24.79 68.976-4.207 24.265-6.946 38.541-7.959 42.697-2.18 8.982-8.721 21.194-27.478 31.158-6.387 13.861-9.328 28.164-8.922 43.73 0.455 19.386 1.723 46.956 3.65 81.883 2.94 34.332 8.516 67.685 16.678 99.076 7.35 27.932 23.979 54.392 48.922 78.037 12.47 11.050 30.011 20.55 52.013 28.164 23.826 8.234 48.363 14.379 73.001 18.251 24.943 3.898 48.922 5.86 71.227 5.86 26.919 0 40.708-2.091 46.293-3.483 79.59-3.866 53.37-54.648 135.66-54.648 17.237-3.821 31.228-13.036 42.635-28.189 12.115-15.979 18.807-35.831 20.43-58.832 0-9.552 0.506-24.446 1.519-44.684 1.014-19.128 1.471-39.315 1.471-60.457 0-20.756-0.71-39.574-2.18-56.354-0.914-10.97-2.232-16.185-3.296-18.457-18.046-1.006-30.974-15.41-30.974-34.9 0-3.174-0.76-13.294-2.129-30.281-1.419-17.216-5.629-42.103-12.371-73.441-3.447-15.1-8.467-28.705-14.802-40.348-7.099-12.907-14.398-24.677-20.836-33.842-9.581-11.72-19.213-22.458-28.744-32.268l-6.793-6.893-0.71-9.732c-1.116-14.067-1.623-27.672-1.623-40.683v-32.424c0-13.243 0.71-23.438 1.623-28.499 1.521-19.076 6.995-33.095 16.527-42.645 8.618-8.882 21.595-15.309 39.239-19.93 5.373-2.168 15.107-5.523 29.301-10.014 12.825-3.951 28.084-9.243 49.579-17.168l110.111-40.348c17.946-6.608 33.965-12.751 47.856-18.276s24.231-9.836 29.758-12.21c21.239-10.792 27.729-19.18 29.505-22.227 5.473-9.449 10.492-21.993 14.446-35.573 1.927-8.957 4.564-25.298 8.010-49.124 3.132-21.888 6.46-44.561 9.986-68.070z" />
<glyph unicode="&#xe918;" glyph-name="attach" d="M615.895 718.641c16.662 16.662 43.677 16.662 60.34 0s16.662-43.677 0-60.34l-301.699-301.699c-16.662-16.662-16.662-43.677 0-60.34s43.677-16.662 60.34 0l308.802 308.802c16.662 16.662 43.677 16.662 60.34 0s16.662-43.677 0-60.34l-308.802-308.802c-49.987-49.987-131.032-49.987-181.019 0s-49.987 131.032 0 181.019l301.699 301.699zM736.574 356.602c16.662 16.662 43.677 16.662 60.34 0s16.662-43.677 0-60.34l-194.022-194.022c-109.979-109.979-293.221-103.152-409.376 13.003s-122.981 299.397-13.003 409.376l322.262 322.262c82.717 82.717 217.253 82.044 300.498-1.201s83.917-217.782 1.201-300.498l-46.663-46.663c-16.662-16.662-43.677-16.662-60.34 0s-16.662 43.677 0 60.34l46.663 46.663c49.256 49.256 48.853 129.764-1.201 179.819s-130.563 50.457-179.819 1.201l-322.262-322.262c-75.607-75.607-70.791-204.903 13.003-288.696s213.089-88.61 288.696-13.003l194.022 194.022z" />
<glyph unicode="&#xe919;" glyph-name="forward" horiz-adv-x="1097" d="M0 960h329.143l329.143-512-329.143-512h-329.143l329.143 512-329.143 512zM438.857 960h329.143l329.143-512-329.143-512h-329.143l329.143 512-329.143 512z" />
<glyph unicode="&#xe91a;" glyph-name="trashcan" d="M389.794 679.77h-189.575c-16.374 0-29.552-13.207-29.552-29.498 0-16.258 13.231-29.498 29.552-29.498h623.562c16.374 0 29.552 13.207 29.552 29.498 0 16.258-13.231 29.498-29.552 29.498h-189.575v84.34c0 13.931-11.298 25.224-25.236 25.224h-193.94c-13.937 0-25.236-11.339-25.236-25.224v-84.34zM448.79 679.77h126.42v50.568h-126.42v-50.568zM707.719 169.861l-374.954-0.206-31.558 394.475c-1.299 16.239-15.517 28.351-31.756 27.052s-28.351-15.517-27.052-31.756l33.864-423.306c1.115-13.939 13.29-25.239 27.234-25.239h434.41c13.926 0 25.895 11.327 26.731 25.272l25.432 423.859c0.976 16.262-11.416 30.236-27.678 31.212s-30.236-11.416-31.212-27.678l-23.462-393.683zM406.65 557.498c0 16.328 13.24 29.564 29.498 29.564 16.291 0 29.498-13.198 29.498-29.564v-311.703c0-16.328-13.24-29.564-29.498-29.564-16.291 0-29.498 13.198-29.498 29.564v311.703zM575.21 557.498c0 16.328 13.24 29.564 29.498 29.564 16.291 0 29.498-13.198 29.498-29.564v-311.703c0-16.328-13.24-29.564-29.498-29.564-16.291 0-29.498 13.198-29.498 29.564v311.703z" />
<glyph unicode="&#xe91b;" glyph-name="play" d="M512-64c-282.77 0-512 229.23-512 512s229.23 512 512 512c282.77 0 512-229.23 512-512s-229.23-512-512-512zM714.653 423.382c3.954 2.4 7.271 5.718 9.671 9.671 8.255 13.596 3.925 31.31-9.671 39.564l-274.106 166.422c-4.506 2.736-9.676 4.182-14.947 4.182-15.906 0-28.8-12.894-28.8-28.8v-332.843c0-5.271 1.447-10.441 4.182-14.947 8.255-13.596 25.968-17.926 39.564-9.671l274.106 166.422z" />
<glyph unicode="&#xe91c;" glyph-name="ringtone" d="M732.475 192v332.8c0 128-97.663 230.4-219.742 230.4s-219.742-102.4-219.742-230.4v-332.8h439.485zM927.802 115.2v0c0-14.138-11.462-25.6-25.6-25.6h-778.938c-14.138 0-25.6 11.462-25.6 25.6v0c0 16.432 6.327 32.234 17.668 44.125l79.995 83.875v281.6c0 157.184 104.011 288.768 244.158 323.584v34.816c0 42.496 32.717 76.8 73.247 76.8s73.247-34.304 73.247-76.8v-34.816c139.659-34.816 244.158-166.4 244.158-323.584v-281.6l79.995-83.875c11.341-11.891 17.668-27.693 17.668-44.125zM512.732-64c-53.715 0-97.663 46.080-97.663 102.4h195.327c0-56.32-43.948-102.4-97.663-102.4zM85.272 513.135c-1.258-23.531-21.354-41.586-44.884-40.327s-41.586 21.354-40.327 44.884c9.252 172.992 89.678 330.019 218.635 432.984 18.415 14.703 45.261 11.694 59.964-6.721s11.694-45.261-6.721-59.964c-109.878-87.731-178.713-222.128-186.668-370.856zM938.713 513.135c1.258-23.531 21.354-41.586 44.884-40.327s41.586 21.354 40.327 44.884c-9.252 172.992-89.678 330.019-218.635 432.984-18.415 14.703-45.261 11.694-59.964-6.721s-11.694-45.261 6.721-59.964c109.878-87.731 178.713-222.128 186.668-370.856z" />
<glyph unicode="&#xe91d;" glyph-name="video" d="M170.667 192h-42.667v-128h42.667v128zM170.667 234.667v170.667h-42.667v-170.667h42.667zM170.667 448v213.333h-42.667v-213.333h42.667zM170.667 704v128h-42.667v-128h42.667zM896 192h-42.667v42.667h42.667v170.667h-42.667v42.667h42.667v213.333h-42.667v42.667h42.667v128h-42.667v-768h42.667v128zM768 64v768h-512v-768h512zM128 917.333h768c47.128 0 85.333-38.205 85.333-85.333v-768c0-47.128-38.205-85.333-85.333-85.333h-768c-47.128 0-85.333 38.205-85.333 85.333v768c0 47.128 38.205 85.333 85.333 85.333zM629.744 429.573l-192.328-112.191c-10.177-5.937-23.24-2.499-29.177 7.678-1.903 3.263-2.906 6.972-2.906 10.749v224.382c0 11.782 9.551 21.333 21.333 21.333 3.777 0 7.487-1.003 10.749-2.906l192.328-112.191c10.177-5.937 13.615-18.999 7.678-29.177-1.854-3.179-4.499-5.824-7.678-7.678z" />
<glyph unicode="&#xe91e;" glyph-name="more" d="M384 448c0-47.128-38.205-85.333-85.333-85.333s-85.333 38.205-85.333 85.333c0 47.128 38.205 85.333 85.333 85.333s85.333-38.205 85.333-85.333zM597.333 448c0-47.128-38.205-85.333-85.333-85.333s-85.333 38.205-85.333 85.333c0 47.128 38.205 85.333 85.333 85.333s85.333-38.205 85.333-85.333zM810.667 448c0-47.128-38.205-85.333-85.333-85.333s-85.333 38.205-85.333 85.333c0 47.128 38.205 85.333 85.333 85.333s85.333-38.205 85.333-85.333z" />
</font>
</defs>
</svg>
